# xmcd
#
# Track frame offsets:
#	182
#	15175
#	32810
#	53912
#	69902
#	85292
#	99572
#	111575
#	129527
#	149727
#	163137
#	177665
#
# Disc length: 2889 seconds
#
# Revision: 1
# Processed by: cddbd v1.4PL0 Copyright (c) Steve Scherf et al.
# Submitted via: audiograbber 1.81.03
#
DISCID=ab0b470c
DTITLE=The Regulators - Consider It Done
DYEAR=1997
DGENRE=Blues
TTITLE0=Gee Seven I Love Your Spots
TTITLE1=Consider It Done
TTITLE2=I Feel So Lonely
TTITLE3=Back To This Planet
TTITLE4=Bull's Eye
TTITLE5=Diddly Squat
TTITLE6=What's Up, Doc
TTITLE7=Step Into My Office
TTITLE8=Standing By
TTITLE9=See If I Care
TTITLE10=Cut The Crap
TTITLE11=Bullet In My Back
EXTD=
EXTT0=
EXTT1=
EXTT2=
EXTT3=
EXTT4=
EXTT5=
EXTT6=
EXTT7=
EXTT8=
EXTT9=
EXTT10=
EXTT11=
PLAYORDER=
